# xmcd CD database file
#
# Track frame offsets:
#	183
#	17553
#	33445
#
# Disc length: 866 seconds
#
# Revision: 0
# Processed by: cddbd v1.5.2PL0 Copyright (c) Steve Scherf et al.
# Submitted via: CDex 1.51
#
DISCID=18036003
DTITLE=Dee Lewis - The Best of My Love
DYEAR=1988
DGENRE=Misc
TTITLE0=The Best of My Love
TTITLE1=This Love
TTITLE2=The Best of My Love (Full Dance Mix)
EXTD=YEAR: 1988
EXTT0=
EXTT1=
EXTT2=
PLAYORDER=
